<svg width="29" height="16" viewBox="0 0 29 16" fill="none" xmlns="http://www.w3.org/2000/svg">
<path d="M20.0005 0.998923C19.9068 1.09189 19.8324 1.20249 19.7817 1.32435C19.7309 1.44621 19.7047 1.57691 19.7047 1.70892C19.7047 1.84094 19.7309 1.97164 19.7817 2.0935C19.8324 2.21536 19.9068 2.32596 20.0005 2.41892L24.6005 7.01892H1.06055C0.79533 7.01892 0.540976 7.12428 0.35344 7.31182C0.165904 7.49935 0.0605469 7.75371 0.0605469 8.01892C0.0605469 8.28414 0.165904 8.53849 0.35344 8.72603C0.540976 8.91357 0.79533 9.01892 1.06055 9.01892H24.5805L20.0005 13.5889C19.8143 13.7763 19.7098 14.0297 19.7098 14.2939C19.7098 14.5581 19.8143 14.8116 20.0005 14.9989C20.1879 15.1852 20.4414 15.2897 20.7055 15.2897C20.9697 15.2897 21.2232 15.1852 21.4105 14.9989L27.7705 8.63892C27.8561 8.55679 27.9243 8.4582 27.9708 8.34908C28.0173 8.23996 28.0413 8.12255 28.0413 8.00392C28.0413 7.88529 28.0173 7.76789 27.9708 7.65877C27.9243 7.54964 27.8561 7.45105 27.7705 7.36892L21.4205 0.998923C21.3276 0.905195 21.217 0.830801 21.0951 0.780032C20.9733 0.729263 20.8426 0.703125 20.7105 0.703125C20.5785 0.703125 20.4478 0.729263 20.326 0.780032C20.2041 0.830801 20.0935 0.905195 20.0005 0.998923Z" fill="#8B8EC2"/>
</svg>
