<svg width="34" height="34" viewBox="0 0 34 34" fill="none" xmlns="http://www.w3.org/2000/svg">
<path d="M22.2727 13.7273C21.1681 13.7273 20.2727 12.8318 20.2727 11.7273V2.63635C20.2727 1.53178 19.3773 0.636353 18.2727 0.636353H15.7273C14.6227 0.636353 13.7273 1.53178 13.7273 2.63635V11.7273C13.7273 12.8318 12.8318 13.7273 11.7273 13.7273H2.63635C1.53178 13.7273 0.636353 14.6227 0.636353 15.7273V18.2727C0.636353 19.3773 1.53178 20.2727 2.63635 20.2727H11.7273C12.8318 20.2727 13.7273 21.1681 13.7273 22.2727V31.3636C13.7273 32.4682 14.6227 33.3636 15.7273 33.3636H18.2727C19.3773 33.3636 20.2727 32.4682 20.2727 31.3636V22.2727C20.2727 21.1681 21.1681 20.2727 22.2727 20.2727H31.3636C32.4682 20.2727 33.3636 19.3773 33.3636 18.2727V15.7273C33.3636 14.6227 32.4682 13.7273 31.3636 13.7273H22.2727Z" fill="url(#paint0_linear_2701_2943)"/>
<defs>
<linearGradient id="paint0_linear_2701_2943" x1="17" y1="0.636353" x2="17" y2="33.3636" gradientUnits="userSpaceOnUse">
<stop stop-color="#FF71A4"/>
<stop offset="1" stop-color="#EE3175"/>
</linearGradient>
</defs>
</svg>
