<svg width="36" height="30" viewBox="0 0 36 30" fill="none" xmlns="http://www.w3.org/2000/svg">
<path d="M17.4867 0.796873C16.9031 0.902342 16.2633 1.24687 15.8203 1.71094L15.4125 2.13281H10.8141H6.20859L5.89921 2.29453C5.44921 2.53359 5.18202 2.94844 5.14687 3.46875C5.10468 4.05937 5.17499 4.33359 5.45624 4.69922C5.59687 4.88203 5.68124 5.05781 5.64609 5.10703C5.61796 5.15625 4.39453 7.11797 2.92499 9.48047C1.46249 11.8359 0.196869 13.868 0.126556 13.9875C-6.4224e-06 14.1984 -6.4224e-06 14.2195 0.14765 14.6906C0.885931 17.1023 2.89687 18.9023 5.30859 19.3242C6.48984 19.5281 7.50234 19.4437 8.66953 19.05C10.6383 18.375 12.143 16.8281 12.8039 14.8031C12.9656 14.2898 12.9867 14.1703 12.9094 14.0508C12.8602 13.9734 11.8476 12.2789 10.6523 10.2891C9.46406 8.29922 8.3039 6.35859 8.0789 5.9789L7.67109 5.29687H11.5523L15.4336 5.30391L15.7008 5.6625L15.9609 6.02812V15.7453V25.4695L12.6773 25.4906L9.38671 25.5117L8.97187 25.7156C8.40937 25.9898 8.36718 26.1164 8.36718 27.4242C8.36718 28.6828 8.43046 28.8586 8.96484 29.1328L9.3164 29.3086H18.1758H27.0352L27.3586 29.1609C27.9492 28.8867 27.9562 28.8586 28.0055 27.5437C28.0617 26.1094 28.0266 25.9969 27.4289 25.7086L27.0352 25.5117L23.5406 25.4906L20.0391 25.4695V15.7312V6L20.3062 5.64844L20.5664 5.30391H24.4477L28.3289 5.29687L25.8609 9.42422C24.5039 11.7023 23.3016 13.6992 23.1961 13.868L23.0062 14.1773L23.1398 14.6414C23.7867 16.9125 25.5727 18.6141 27.9844 19.268C28.6734 19.4508 30.4242 19.4367 31.1625 19.2328C33.4195 18.6141 35.1633 16.9266 35.8523 14.6906C36 14.2195 36 14.1984 35.8734 13.9875C35.8031 13.868 34.5375 11.8359 33.075 9.48047C31.6055 7.11797 30.382 5.15625 30.3539 5.10703C30.3187 5.05781 30.4031 4.88203 30.5437 4.69922C30.825 4.33359 30.8953 4.05937 30.8531 3.46875C30.818 2.94844 30.5508 2.53359 30.1008 2.29453L29.7914 2.13281H25.1719H20.5453L20.2922 1.82344C19.6664 1.05 18.4852 0.621092 17.4867 0.796873ZM8.85234 10.1766C10.0969 12.2437 11.1305 13.9805 11.1516 14.0437C11.1937 14.1492 10.7789 14.1562 6.5039 14.1562C2.60156 14.1562 1.82109 14.1422 1.84921 14.0648C1.88437 13.9664 6.56015 6.42188 6.58827 6.42188C6.59531 6.42188 7.61484 8.10938 8.85234 10.1766ZM34.1508 14.0648C34.1789 14.1422 33.3562 14.1562 29.4961 14.1562C25.3195 14.1562 24.8133 14.1422 24.8484 14.0508C24.8836 13.9594 28.9547 7.125 29.2992 6.57656C29.3976 6.41484 29.475 6.52734 31.7601 10.1906C33.0539 12.2719 34.1297 14.0086 34.1508 14.0648Z" fill="url(#paint0_linear_2771_2953)"/>
<defs>
<linearGradient id="paint0_linear_2771_2953" x1="25.3497" y1="8.21988" x2="9.86321" y2="27.7098" gradientUnits="userSpaceOnUse">
<stop stop-color="#FFB800"/>
<stop offset="1" stop-color="#FF7A00"/>
</linearGradient>
</defs>
</svg>
